<svg width="33" height="33" viewBox="0 0 33 33" fill="none" xmlns="http://www.w3.org/2000/svg">
<path fill-rule="evenodd" clip-rule="evenodd" d="M10.6679 7.93031C11.4318 7.16071 12.3403 6.54978 13.3412 6.13268C14.3422 5.71559 15.4157 5.50057 16.5 5.5C18.6863 5.5 20.7845 6.37312 22.3321 7.93031C23.882 9.49173 24.7512 11.6029 24.75 13.8029C24.75 17.6021 22.6435 21.0409 20.449 23.5799C19.5242 24.6446 18.5216 25.6392 17.4494 26.5554C17.1394 26.8213 16.8229 27.0794 16.5 27.3295C16.1773 27.0792 15.8607 26.8211 15.5506 26.5554C14.4784 25.6392 13.4758 24.6446 12.551 23.5799C10.3565 21.0409 8.25 17.6021 8.25 13.8029C8.25 11.5995 9.12038 9.4875 10.6679 7.93031ZM16.104 28.7492L16.5 28.1875L16.896 28.7492C16.78 28.8307 16.6417 28.8744 16.5 28.8744C16.3583 28.8744 16.22 28.8307 16.104 28.7492ZM16.104 28.7492L16.5 28.1875L16.896 28.7492L16.8988 28.7478L16.9056 28.743L16.9263 28.7272L17.0074 28.6688C17.0761 28.6179 17.1765 28.5436 17.303 28.446C17.556 28.2521 17.9149 27.9668 18.3432 27.6004C19.4675 26.6394 20.5189 25.5961 21.4885 24.4791C23.7628 21.8487 26.125 18.0943 26.125 13.8022C26.125 11.2379 25.1116 8.77663 23.3076 6.96163C22.416 6.06333 21.3554 5.35025 20.1871 4.86343C19.0188 4.3766 17.7657 4.12565 16.5 4.125C15.2343 4.12556 13.9813 4.3764 12.813 4.86311C11.6446 5.34982 10.5841 6.06277 9.69238 6.96094C7.8866 8.78009 6.87379 11.2397 6.875 13.8029C6.875 18.0943 9.23725 21.8487 11.5115 24.4791C12.4811 25.5961 13.5325 26.6394 14.6568 27.6004C15.0858 27.9668 15.444 28.2521 15.697 28.446C15.8211 28.5416 15.9465 28.6356 16.0731 28.7279L16.0951 28.743L16.1013 28.7478L16.104 28.7492ZM13.75 13.75C13.75 13.0207 14.0397 12.3212 14.5555 11.8055C15.0712 11.2897 15.7707 11 16.5 11C17.2293 11 17.9288 11.2897 18.4445 11.8055C18.9603 12.3212 19.25 13.0207 19.25 13.75C19.25 14.4793 18.9603 15.1788 18.4445 15.6945C17.9288 16.2103 17.2293 16.5 16.5 16.5C15.7707 16.5 15.0712 16.2103 14.5555 15.6945C14.0397 15.1788 13.75 14.4793 13.75 13.75ZM16.5 9.625C15.406 9.625 14.3568 10.0596 13.5832 10.8332C12.8096 11.6068 12.375 12.656 12.375 13.75C12.375 14.844 12.8096 15.8932 13.5832 16.6668C14.3568 17.4404 15.406 17.875 16.5 17.875C17.594 17.875 18.6432 17.4404 19.4168 16.6668C20.1904 15.8932 20.625 14.844 20.625 13.75C20.625 12.656 20.1904 11.6068 19.4168 10.8332C18.6432 10.0596 17.594 9.625 16.5 9.625Z" fill="#2D3036"/>
</svg>
