<svg width="39" height="40" viewBox="0 0 39 40" fill="none" xmlns="http://www.w3.org/2000/svg">
<g clip-path="url(#clip0_276_17)">
<path d="M7.12117 0.939453C3.17635 0.939453 0 4.11581 0 8.06062V32.8183C0 36.7631 3.17635 39.9395 7.12117 39.9395H20.5396V24.6929H16.508V19.2037H20.5396V14.5139C20.5396 10.8294 22.9217 7.44637 28.4091 7.44637C30.6308 7.44637 32.2737 7.65966 32.2737 7.65966L32.1445 12.7857C32.1445 12.7857 30.469 12.7699 28.6406 12.7699C26.6618 12.7699 26.3445 13.6817 26.3445 15.1952V19.2037H32.3018L32.0422 24.693H26.3445V39.9395H31.8788C35.8236 39.9395 39 36.7632 39 32.8184V8.06066C39 4.11585 35.8236 0.939492 31.8788 0.939492H7.12113L7.12117 0.939453Z" fill="#2D3036"/>
</g>
<defs>
<clipPath id="clip0_276_17">
<rect width="39" height="39" fill="white" transform="translate(0 0.939453)"/>
</clipPath>
</defs>
</svg>
