<svg width="39" height="39" viewBox="0 0 39 39" fill="none" xmlns="http://www.w3.org/2000/svg">
<path d="M8.86133 12.8877V38.5852H0.482422V12.8877H8.86133ZM9.39453 4.95285C9.41146 6.21482 8.98405 7.26934 8.1123 8.11642C7.24056 8.96349 6.09375 9.38703 4.67188 9.38703H4.62109C3.23307 9.38703 2.11589 8.96349 1.26953 8.11642C0.423177 7.26934 0 6.21482 0 4.95285C0 3.6736 0.435872 2.61475 1.30762 1.77632C2.17936 0.937892 3.31771 0.518677 4.72266 0.518677C6.1276 0.518677 7.25326 0.937892 8.09961 1.77632C8.94596 2.61475 9.3776 3.6736 9.39453 4.95285ZM39 23.8564V38.5852H30.6465V24.8418C30.6465 23.0267 30.3037 21.6048 29.6182 20.5762C28.9326 19.5476 27.862 19.0333 26.4062 19.0333C25.3398 19.0333 24.4469 19.3315 23.7275 19.9279C23.0081 20.5243 22.4707 21.2634 22.1152 22.145C21.929 22.6636 21.8359 23.3638 21.8359 24.2454V38.5852H13.4824C13.5163 31.6876 13.5332 26.0951 13.5332 21.8079C13.5332 17.5207 13.5247 14.9622 13.5078 14.1324L13.4824 12.8877H21.8359V16.6217H21.7852C22.1237 16.0685 22.4707 15.5845 22.8262 15.1696C23.1816 14.7547 23.6598 14.3052 24.2607 13.8212C24.8617 13.3372 25.598 12.9612 26.4697 12.6932C27.3415 12.4253 28.3105 12.2913 29.377 12.2913C32.2715 12.2913 34.599 13.2723 36.3594 15.2344C38.1198 17.1965 39 20.0705 39 23.8564Z" fill="#2D3036"/>
</svg>
