<svg id="Vrstva_1" data-name="Vrstva 1" xmlns="http://www.w3.org/2000/svg" width="12.98mm" height="19.29mm" viewBox="0 0 36.79 54.68">
  <defs>
    <style>
      .cls-1 {
        fill: #ede8d4;
      }
    </style>
  </defs>
  <title>shelf1</title>
  <g>
    <polygon class="cls-1" points="12.44 17.56 12.44 11.99 24.46 11.98 24.46 17.56 22.45 17.56 22.45 16.88 19.45 16.89 19.44 17.57 17.45 17.57 17.45 16.88 14.44 16.87 14.44 17.55 12.44 17.56"/>
    <polygon class="cls-1" points="6.09 26.77 4.09 26.77 4.08 26.11 1.09 26.12 1.09 26.78 0.03 26.78 0.04 21.23 6.09 21.22 6.09 26.77"/>
    <polygon class="cls-1" points="30.73 26.85 32.73 26.81 32.74 26.11 35.73 26.11 35.73 26.77 36.79 26.77 36.78 21.22 30.73 21.21 30.73 26.85"/>
    <polygon class="cls-1" points="8.79 0 9.79 0 9.79 54.62 8.79 54.62 8.79 0"/>
    <polygon class="cls-1" points="27.19 0 28.19 0 28.19 54.62 27.19 54.62 27.19 0"/>
    <polygon class="cls-1" points="0.03 9.37 0.03 8.37 36.79 8.37 36.79 9.37 0.03 9.37"/>
    <polygon class="cls-1" points="0.03 18.55 0.03 17.56 36.79 17.56 36.79 18.56 0.03 18.55"/>
    <polygon class="cls-1" points="0.03 27.77 0.03 26.77 36.79 26.77 36.79 27.77 0.03 27.77"/>
    <polygon class="cls-1" points="12.41 45.21 12.41 39.64 24.43 39.63 24.43 45.21 22.42 45.23 22.42 44.53 19.42 44.53 19.41 45.22 17.42 45.22 17.42 44.53 14.41 44.52 14.41 45.25 12.41 45.21"/>
    <polygon class="cls-1" points="6.06 54.6 4.06 54.6 4.05 53.94 1.06 53.95 1.06 54.61 0 54.61 0.01 49.06 6.06 49.05 6.06 54.6"/>
    <polygon class="cls-1" points="30.7 54.68 32.7 54.64 32.71 53.94 35.7 53.94 35.7 54.6 36.76 54.6 36.75 49.05 30.7 49.04 30.7 54.68"/>
    <polygon class="cls-1" points="0.03 36.99 0.03 36 36.79 36 36.79 37 0.03 36.99"/>
    <polygon class="cls-1" points="0.03 46.21 0.03 45.22 36.79 45.22 36.79 46.22 0.03 46.21"/>
  </g>
</svg>
