<svg width="33" height="34" viewBox="0 0 33 34" fill="none" xmlns="http://www.w3.org/2000/svg">
<path d="M18.5577 9.33696C18.5977 9.19085 18.6935 9.06631 18.8244 8.99021C18.9554 8.9141 19.111 8.89255 19.2577 8.93019C20.6364 9.30074 21.8934 10.0271 22.9029 11.0366C23.9123 12.046 24.6387 13.3031 25.0092 14.6817C25.0292 14.7544 25.0344 14.8303 25.0247 14.905C25.015 14.9798 24.9905 15.0518 24.9526 15.117C24.9148 15.1822 24.8643 15.2391 24.8042 15.2846C24.7441 15.33 24.6755 15.3631 24.6025 15.3817L24.4606 15.4006C24.3349 15.4004 24.2129 15.3585 24.1136 15.2815C24.0143 15.2045 23.9433 15.0966 23.9119 14.975C23.5911 13.7901 22.9656 12.7099 22.0976 11.8419C21.2296 10.9739 20.1494 10.3483 18.9645 10.0275C18.8204 9.98753 18.6975 9.89319 18.6217 9.76438C18.5458 9.63557 18.5229 9.48234 18.5577 9.33696ZM18.1793 12.9506C18.8513 13.1345 19.4638 13.4904 19.9564 13.983C20.4491 14.4757 20.8049 15.0881 20.9889 15.7601C21.0203 15.8818 21.0912 15.9896 21.1905 16.0667C21.2898 16.1437 21.4119 16.1856 21.5375 16.1858L21.6794 16.1669C21.8242 16.1248 21.9472 16.0287 22.023 15.8983C22.0987 15.768 22.1214 15.6135 22.0862 15.4669C21.8525 14.6011 21.3958 13.8118 20.7617 13.1777C20.1276 12.5437 19.3383 12.087 18.4726 11.8532C18.326 11.8181 18.1715 11.8407 18.0411 11.9165C17.9108 11.9922 17.8146 12.1152 17.7726 12.26C17.7352 12.4055 17.757 12.5599 17.8332 12.6894C17.9095 12.8188 18.0339 12.9127 18.1793 12.9506ZM25.7471 22.2306C25.5885 23.4637 24.9865 24.597 24.0534 25.4186C23.1203 26.2403 21.92 26.6942 20.6767 26.6955C13.2697 26.6955 7.2439 20.6697 7.2439 13.2627C7.24523 12.0194 7.69913 10.8191 8.52081 9.88605C9.34248 8.95297 10.4757 8.35091 11.7089 8.19233C11.9926 8.15912 12.2795 8.21855 12.5267 8.36176C12.7739 8.50496 12.9682 8.72427 13.0805 8.98695L14.9819 13.4236C15.0682 13.6243 15.1038 13.8432 15.0857 14.0609C15.0675 14.2786 14.9962 14.4885 14.8779 14.6722L13.2981 17.075C13.2825 17.1021 13.2735 17.1325 13.2719 17.1637C13.2702 17.195 13.276 17.2262 13.2887 17.2547C14.0153 18.7446 15.2212 19.9472 16.7131 20.6697C16.742 20.6827 16.7739 20.6878 16.8055 20.6845C16.8371 20.6812 16.8672 20.6695 16.8928 20.6508L19.2672 19.071C19.4491 18.9488 19.6588 18.8744 19.877 18.8545C20.0952 18.8347 20.3149 18.8701 20.5159 18.9575L24.9525 20.8589C25.2152 20.9712 25.4345 21.1655 25.5777 21.4127C25.7209 21.6599 25.7803 21.9468 25.7471 22.2306ZM24.6214 22.0887C24.6246 22.0492 24.6154 22.0097 24.5951 21.9758C24.5747 21.9419 24.5442 21.9152 24.5079 21.8995L20.0713 19.9981C20.042 19.9868 20.0104 19.9826 19.9791 19.9859C19.9479 19.9892 19.9179 19.9998 19.8915 20.017L17.5266 21.5968C17.3351 21.7225 17.1147 21.7973 16.8862 21.8138C16.6577 21.8304 16.4288 21.7882 16.2212 21.6914C14.5005 20.8537 13.1088 19.4653 12.267 17.7467C12.1687 17.5415 12.1249 17.3145 12.1398 17.0875C12.1547 16.8605 12.2278 16.6412 12.3521 16.4507L13.9225 14.0479C13.9412 14.0223 13.9528 13.9922 13.9562 13.9606C13.9595 13.929 13.9544 13.8971 13.9414 13.8682L12.04 9.43156C12.0255 9.3983 12.0017 9.36992 11.9715 9.34979C11.9413 9.32966 11.906 9.31864 11.8697 9.31804H11.8508C10.8927 9.44398 10.0128 9.91319 9.37434 10.6386C8.7359 11.364 8.38227 12.2964 8.37906 13.2627C8.38157 16.5235 9.67801 19.65 11.9837 21.9557C14.2894 24.2614 17.4159 25.5579 20.6767 25.5604C21.643 25.5572 22.5754 25.2035 23.3008 24.5651C24.0263 23.9267 24.4955 23.0468 24.6214 22.0887Z" fill="#2D3036"/>
</svg>
